<svg xmlns="http://www.w3.org/2000/svg" width="48" height="48" viewBox="0 0 48 48" fill="none">
  <defs>
    <linearGradient id="hm-grad" x1="0" y1="0" x2="48" y2="48">
      <stop offset="0%" stop-color="#7c3aed" />
      <stop offset="55%" stop-color="#c026d3" />
      <stop offset="100%" stop-color="#ec4899" />
    </linearGradient>
  </defs>
  <rect width="48" height="48" rx="12" fill="url(#hm-grad)" />
  <path d="M12 14h24a3 3 0 0 1 3 3v12a3 3 0 0 1-3 3H22l-7 6v-6h-3a3 3 0 0 1-3-3V17a3 3 0 0 1 3-3z" fill="white" opacity="0.16" />
  <path d="M14 23h3l2.5-6 3.5 12 3-9 2.5 6 2-3h6" stroke="white" stroke-width="2.4" stroke-linecap="round" stroke-linejoin="round" fill="none" />
</svg>
